<mxfile host="app.diagrams.net" modified="2021-01-11T02:53:33.434Z" agent="5.0 (Windows NT 10.0; WOW64) AppleWebKit/537.36 (KHTML, like Gecko) Chrome/78.0.3904.108 Safari/537.36" etag="xGLpJxG87liSLwVVsxJo" version="14.1.8" type="github">
  <diagram id="Wc-KlJpiXTT7ANUVL1O2" name="第 1 页">
    <mxGraphModel dx="2224" dy="732" grid="0" gridSize="10" guides="1" tooltips="1" connect="1" arrows="1" fold="1" page="0" pageScale="1" pageWidth="827" pageHeight="1169" math="0" shadow="0">
      <root>
        <mxCell id="0" />
        <mxCell id="1" parent="0" />
        <mxCell id="DArMAvbHiKXC-84_z5ol-40" value="" style="rounded=0;whiteSpace=wrap;html=1;dashed=1;" vertex="1" parent="1">
          <mxGeometry x="163" y="438" width="120" height="86" as="geometry" />
        </mxCell>
        <mxCell id="DArMAvbHiKXC-84_z5ol-33" value="" style="rounded=0;whiteSpace=wrap;html=1;dashed=1;" vertex="1" parent="1">
          <mxGeometry x="-323.99" y="306" width="500" height="60" as="geometry" />
        </mxCell>
        <mxCell id="DArMAvbHiKXC-84_z5ol-8" value="" style="rounded=0;whiteSpace=wrap;html=1;" vertex="1" parent="1">
          <mxGeometry x="-402" y="112.5" width="656" height="111" as="geometry" />
        </mxCell>
        <mxCell id="DArMAvbHiKXC-84_z5ol-1" value="微店" style="rounded=0;whiteSpace=wrap;html=1;" vertex="1" parent="1">
          <mxGeometry x="-368" y="144" width="100" height="48" as="geometry" />
        </mxCell>
        <mxCell id="DArMAvbHiKXC-84_z5ol-2" value="拼多多" style="rounded=0;whiteSpace=wrap;html=1;" vertex="1" parent="1">
          <mxGeometry x="-249" y="144" width="100" height="48" as="geometry" />
        </mxCell>
        <mxCell id="DArMAvbHiKXC-84_z5ol-3" value="淘宝" style="rounded=0;whiteSpace=wrap;html=1;" vertex="1" parent="1">
          <mxGeometry x="-129.5" y="144" width="100.5" height="48" as="geometry" />
        </mxCell>
        <mxCell id="DArMAvbHiKXC-84_z5ol-6" value="阿里云" style="rounded=0;whiteSpace=wrap;html=1;" vertex="1" parent="1">
          <mxGeometry x="-10" y="144" width="100" height="48" as="geometry" />
        </mxCell>
        <mxCell id="DArMAvbHiKXC-84_z5ol-7" value="其他" style="rounded=0;whiteSpace=wrap;html=1;" vertex="1" parent="1">
          <mxGeometry x="110" y="144" width="100" height="48" as="geometry" />
        </mxCell>
        <mxCell id="DArMAvbHiKXC-84_z5ol-9" value="&lt;font style=&quot;font-size: 20px&quot;&gt;外部渠道&lt;/font&gt;" style="text;html=1;align=center;verticalAlign=middle;resizable=0;points=[];autosize=1;" vertex="1" parent="1">
          <mxGeometry x="-129" y="57" width="90" height="21" as="geometry" />
        </mxCell>
        <mxCell id="DArMAvbHiKXC-84_z5ol-12" value="" style="rounded=0;whiteSpace=wrap;html=1;" vertex="1" parent="1">
          <mxGeometry x="286" y="112.5" width="455" height="111" as="geometry" />
        </mxCell>
        <mxCell id="DArMAvbHiKXC-84_z5ol-13" value="企业主app" style="rounded=0;whiteSpace=wrap;html=1;" vertex="1" parent="1">
          <mxGeometry x="323" y="148" width="100" height="48" as="geometry" />
        </mxCell>
        <mxCell id="DArMAvbHiKXC-84_z5ol-14" value="官网" style="rounded=0;whiteSpace=wrap;html=1;" vertex="1" parent="1">
          <mxGeometry x="460" y="148" width="100" height="48" as="geometry" />
        </mxCell>
        <mxCell id="DArMAvbHiKXC-84_z5ol-15" value="其他" style="rounded=0;whiteSpace=wrap;html=1;" vertex="1" parent="1">
          <mxGeometry x="597" y="148" width="100" height="48" as="geometry" />
        </mxCell>
        <mxCell id="DArMAvbHiKXC-84_z5ol-16" value="&lt;font style=&quot;font-size: 20px&quot;&gt;融易算渠道&lt;/font&gt;" style="text;html=1;align=center;verticalAlign=middle;resizable=0;points=[];autosize=1;" vertex="1" parent="1">
          <mxGeometry x="449" y="63" width="110" height="21" as="geometry" />
        </mxCell>
        <mxCell id="DArMAvbHiKXC-84_z5ol-36" value="拆单一拆多" style="edgeStyle=orthogonalEdgeStyle;rounded=0;orthogonalLoop=1;jettySize=auto;html=1;exitX=1;exitY=0.25;exitDx=0;exitDy=0;dashed=1;endArrow=none;endFill=0;" edge="1" parent="1" source="DArMAvbHiKXC-84_z5ol-17">
          <mxGeometry relative="1" as="geometry">
            <mxPoint x="354" y="481" as="targetPoint" />
            <Array as="points">
              <mxPoint x="84" y="450" />
              <mxPoint x="219" y="450" />
              <mxPoint x="219" y="481" />
            </Array>
          </mxGeometry>
        </mxCell>
        <mxCell id="DArMAvbHiKXC-84_z5ol-39" value="并单多并一" style="edgeStyle=orthogonalEdgeStyle;rounded=0;orthogonalLoop=1;jettySize=auto;html=1;exitX=1;exitY=0.75;exitDx=0;exitDy=0;dashed=1;endArrow=blockThin;endFill=1;" edge="1" parent="1" source="DArMAvbHiKXC-84_z5ol-17" target="DArMAvbHiKXC-84_z5ol-18">
          <mxGeometry relative="1" as="geometry">
            <Array as="points">
              <mxPoint x="84" y="512" />
              <mxPoint x="218" y="512" />
              <mxPoint x="218" y="482" />
            </Array>
          </mxGeometry>
        </mxCell>
        <mxCell id="DArMAvbHiKXC-84_z5ol-17" value="&lt;font style=&quot;font-size: 20px&quot;&gt;渠道订单&lt;/font&gt;" style="rounded=0;whiteSpace=wrap;html=1;" vertex="1" parent="1">
          <mxGeometry x="-231.86" y="438" width="315.75" height="87" as="geometry" />
        </mxCell>
        <mxCell id="DArMAvbHiKXC-84_z5ol-18" value="&lt;font style=&quot;font-size: 20px&quot;&gt;融易算订单&lt;/font&gt;" style="rounded=0;whiteSpace=wrap;html=1;" vertex="1" parent="1">
          <mxGeometry x="352.12" y="438" width="315.75" height="87" as="geometry" />
        </mxCell>
        <mxCell id="DArMAvbHiKXC-84_z5ol-28" value="&lt;font style=&quot;font-size: 20px&quot;&gt;pull&lt;/font&gt;" style="endArrow=classic;html=1;entryX=0.5;entryY=0;entryDx=0;entryDy=0;dashed=1;" edge="1" parent="1" target="DArMAvbHiKXC-84_z5ol-17">
          <mxGeometry width="50" height="50" relative="1" as="geometry">
            <mxPoint x="-317" y="227" as="sourcePoint" />
            <mxPoint x="-261" y="232" as="targetPoint" />
          </mxGeometry>
        </mxCell>
        <mxCell id="DArMAvbHiKXC-84_z5ol-30" value="&lt;font style=&quot;font-size: 20px&quot;&gt;push&lt;/font&gt;" style="endArrow=classic;html=1;dashed=1;" edge="1" parent="1">
          <mxGeometry width="50" height="50" relative="1" as="geometry">
            <mxPoint x="-64" y="227" as="sourcePoint" />
            <mxPoint x="-64" y="439" as="targetPoint" />
          </mxGeometry>
        </mxCell>
        <mxCell id="DArMAvbHiKXC-84_z5ol-31" value="&lt;span style=&quot;font-size: 20px&quot;&gt;销售录入&lt;/span&gt;" style="endArrow=classic;html=1;dashed=1;" edge="1" parent="1">
          <mxGeometry width="50" height="50" relative="1" as="geometry">
            <mxPoint x="169" y="225" as="sourcePoint" />
            <mxPoint x="-54" y="438" as="targetPoint" />
          </mxGeometry>
        </mxCell>
        <mxCell id="DArMAvbHiKXC-84_z5ol-32" value="&lt;font style=&quot;font-size: 20px&quot;&gt;用户下单&lt;/font&gt;" style="endArrow=classic;html=1;" edge="1" parent="1">
          <mxGeometry width="50" height="50" relative="1" as="geometry">
            <mxPoint x="509.5" y="223.5" as="sourcePoint" />
            <mxPoint x="509.5" y="435.5" as="targetPoint" />
          </mxGeometry>
        </mxCell>
        <mxCell id="DArMAvbHiKXC-84_z5ol-34" value="&lt;font style=&quot;font-size: 20px&quot;&gt;订单同步&lt;/font&gt;" style="text;html=1;align=center;verticalAlign=middle;resizable=0;points=[];autosize=1;" vertex="1" parent="1">
          <mxGeometry x="-422" y="325.5" width="90" height="21" as="geometry" />
        </mxCell>
        <mxCell id="DArMAvbHiKXC-84_z5ol-41" value="&lt;font style=&quot;font-size: 14px&quot;&gt;渠道订单转化&lt;br&gt;为融易算订单&lt;/font&gt;" style="text;html=1;align=center;verticalAlign=middle;resizable=0;points=[];autosize=1;" vertex="1" parent="1">
          <mxGeometry x="174" y="538" width="94" height="34" as="geometry" />
        </mxCell>
      </root>
    </mxGraphModel>
  </diagram>
</mxfile>
